# xmcd CD database file
#
# Track frame offsets:
#	183
#	13410
#	25888
#	39295
#	50420
#	61058
#	74368
#	87423
#	97133
#	107823
#	119463
#	130138
#
# Disc length: 1931 seconds
#
# Revision: 0
# Processed by: cddbd v1.5.1PL0 Copyright (c) Steve Scherf et al.
# Submitted via: CDex 1.51
#
DISCID=a507890c
DTITLE=Etta James - All I Could Do Was Cry
DYEAR=1991
DGENRE=Blues
TTITLE0=All I Could Do Was Cry
TTITLE1=If I Can't Have You
TTITLE2=Trust In Me
TTITLE3=Don't Cry, Baby
TTITLE4=Tell Mama
TTITLE5=Pushover
TTITLE6=Fool That I Am
TTITLE7=Waiting For Charlie To Come Home
TTITLE8=Steal Away
TTITLE9=AnythingTo Say You're Mine
TTITLE10=Tough Mary
TTITLE11=Only Time Will Tell
EXTD=YEAR: 1991
EXTT0=
EXTT1=
EXTT2=
EXTT3=
EXTT4=
EXTT5=
EXTT6=
EXTT7=
EXTT8=
EXTT9=
EXTT10=
EXTT11=
PLAYORDER=
